<?xml version="1.0" encoding="utf-8"?>
<!-- Generator: Adobe Illustrator 23.0.5, SVG Export Plug-In . SVG Version: 6.00 Build 0)  -->
<svg version="1.1" id="Layer_1" xmlns="http://www.w3.org/2000/svg" xmlns:xlink="http://www.w3.org/1999/xlink" x="0px" y="0px"
	 viewBox="0 0 3350 2000" style="enable-background:new 0 0 3350 2000;" xml:space="preserve">
<style type="text/css">
	.Drop_x0020_Shadow{fill:none;}
	.Outer_x0020_Glow_x0020_5_x0020_pt{fill:none;}
	.Blue_x0020_Neon{fill:none;stroke:#8AACDA;stroke-width:7;stroke-linecap:round;stroke-linejoin:round;}
	.Chrome_x0020_Highlight{fill:url(#SVGID_1_);stroke:#FFFFFF;stroke-width:0.3629;stroke-miterlimit:1;}
	.Jive_GS{fill:#FFDD00;}
	.Alyssa_GS{fill:#A6D0E4;}
	.st0{fill:#0096FF;}
	.st1{fill:#59392B;}
</style>
<linearGradient id="SVGID_1_" gradientUnits="userSpaceOnUse" x1="0" y1="0" x2="6.123234e-17" y2="-1">
	<stop  offset="0" style="stop-color:#656565"/>
	<stop  offset="0.618" style="stop-color:#1B1B1B"/>
	<stop  offset="0.6292" style="stop-color:#545454"/>
	<stop  offset="0.9831" style="stop-color:#3E3E3E"/>
</linearGradient>
<g>
	<g>
		<path class="st0" d="M474.768,1480.786h212.797v42.558h-85.118v148.96h-42.56v-148.96h-85.118V1480.786z"/>
		<path class="st0" d="M1000.088,1672.304H851.13c-42.56,0-63.839-21.282-63.839-63.839v-127.679h212.797v42.558H829.851v31.922
			h170.237v42.558H829.851v10.641c0,14.188,7.091,21.276,21.279,21.276h148.958V1672.304z"/>
		<path class="st0" d="M1312.611,1672.304h-148.958c-42.56,0-63.839-21.282-63.839-63.839v-63.839
			c0-42.563,21.279-63.839,63.839-63.839h148.958v42.558h-148.958c-14.188,0-21.279,7.094-21.279,21.282v63.839
			c0,14.188,7.091,21.276,21.279,21.276h148.958V1672.304z"/>
		<path class="st0" d="M1412.337,1672.304v-191.518h42.56v74.48h127.679v-74.48h42.558v191.518h-42.558v-74.48h-127.679v74.48
			H1412.337z"/>
		<path class="st1" d="M1724.86,1672.304v-191.518h148.96c42.558,0,63.834,21.276,63.834,63.839v127.679h-42.552v-127.679
			c0-14.188-7.099-21.282-21.282-21.282h-106.397v148.96H1724.86z"/>
		<path class="st1" d="M2250.181,1672.304h-148.96c-42.558,0-63.834-21.282-63.834-63.839v-127.679h212.794v42.558h-170.237v31.922
			h170.237v42.558h-170.237v10.641c0,14.188,7.088,21.276,21.276,21.276h148.96V1672.304z"/>
		<path class="st1" d="M2349.907,1629.741h170.237v-31.917h-106.397c-42.563,0-63.839-19.222-63.839-57.671
			c0-39.578,21.276-59.367,63.839-59.367h148.96v42.558h-170.242v31.922h106.397c42.563,0,63.845,19.511,63.845,58.522
			c0,39.011-21.281,58.516-63.845,58.516h-148.955V1629.741z"/>
		<path class="st1" d="M2662.433,1480.786h212.8v42.558h-85.121v148.96h-42.558v-148.96h-85.121V1480.786z"/>
	</g>
	<g>
		<g>
			<path class="st0" d="M2015.356,625.081c0,9.136,3.165,17.496,8.539,24.124v0.06c-9.912,3.045-19.884,6.031-29.857,8.957
				c-14.988,4.419-30.035,8.658-45.143,12.779c-94.286,25.617-190.007,45.083-286.443,58.459c-0.06,0-0.06,0-0.12,0
				c-34.514,4.777-69.088,8.718-103.722,11.883h-0.06c-67.476,6.21-135.25,9.435-202.965,9.554h-4.897
				c-337.737,0-562.138-76.91-564.348-77.687c-7.822-2.747-11.883-11.226-9.195-18.989c2.747-7.822,11.226-11.943,18.989-9.196
				c2.209,0.776,222.252,76.015,554.554,76.015h6.091c31.11-0.06,63.952-0.836,98.228-2.508h0.06
				c33.32-1.612,68.074-4.001,104.08-7.464c128.025-12.122,272.172-36.903,426.411-82.105v-0.059
				c10.031-2.866,20.063-5.912,30.155-9.017C2015.476,621.557,2015.356,623.289,2015.356,625.081z"/>
			<path class="st0" d="M2644.553,355.118c-166.48,109.215-341.5,196.814-522.251,261.364c-9.732,3.523-19.585,6.986-29.378,10.27
				c0.06-0.537,0.06-1.135,0.06-1.672c0-10.39-4.12-19.825-10.808-26.752c9.854-3.344,19.765-6.807,29.677-10.33v-0.06
				c165.287-58.757,339.589-141.819,516.339-257.781c6.867-4.538,16.123-2.627,20.661,4.299
				C2653.39,341.324,2651.48,350.579,2644.553,355.118z"/>
		</g>
		<g>
			<path class="st1" d="M899.856,494.07c8.957,5.016,18.213,10.151,27.767,15.346c-8.42,5.792-14.452,14.689-16.302,25.079
				c-9.255-5.016-18.212-10.032-26.871-14.928c-116.44-65.684-179.318-116.799-180.334-117.634
				c-6.329-5.255-7.285-14.63-2.029-21.019c5.254-6.389,14.629-7.285,21.019-2.03C724.121,379.719,785.626,429.699,899.856,494.07z"
				/>
			<path class="st1" d="M2495.509,775.318c-157.941,26.513-307.044,37.619-445.996,37.619c-2.627,0-5.254,0-7.882-0.059
				c-29.14-0.06-57.803-0.597-86.047-1.672c-144.984-5.255-277.785-22.333-397.032-45.979
				c-35.768-7.046-70.282-14.689-103.543-22.81c-102.885-25.02-193.649-54.339-271.216-83.539
				c-66.043-24.9-125.935-50.995-179.139-76.612c-9.435-4.538-18.63-9.076-27.647-13.495c6.987-6.987,11.286-16.66,11.286-27.289
				v-0.478c9.256,4.658,18.81,9.315,28.543,13.973c53.025,25.557,112.738,51.592,178.781,76.433
				c99.84,37.619,221.834,75.179,363.533,103.542c33.32,6.688,67.774,12.838,103.304,18.392
				c114.112,17.794,239.091,29.02,373.923,29.678c28.543,0.179,57.563-0.179,87.062-1.015
				c115.903-3.284,238.554-14.57,367.176-36.126c8.18-1.373,15.823,4.12,17.197,12.241
				C2509.123,766.302,2503.63,774.005,2495.509,775.318z"/>
		</g>
		<g>
			<path class="st1" d="M1696.107,1038.133c-59.634,0-119.099-2.927-178.445-8.788c-8.205-0.811-14.196-8.123-13.386-16.328
				c0.808-8.205,8.036-14.159,16.325-13.389c300.391,29.693,605.609-17.208,907.143-139.398c7.622-3.085,16.339,0.589,19.442,8.234
				c3.096,7.639-0.589,16.345-8.234,19.442C2192.396,987.82,1943.246,1038.133,1696.107,1038.133z"/>
		</g>
		<g>
			<path class="st0" d="M966.795,847.989c9.016,4.359,18.63,8.898,28.841,13.495c-8.061,5.911-13.316,15.526-13.316,26.334v0.537
				c-10.091-4.538-19.586-9.017-28.543-13.316v-0.06c-62.46-30.035-96.675-52.547-99.124-54.16
				c-6.867-4.538-8.778-13.794-4.18-20.66c4.538-6.867,13.794-8.778,20.661-4.24C871.732,796.338,905.291,818.372,966.795,847.989z"
				/>
			<path class="st0" d="M1158.833,940.246c-2.09,6.269-7.942,10.211-14.212,10.211c-1.553,0-3.105-0.239-4.657-0.776
				c-26.095-8.599-50.578-17.376-73.328-26.154c-10.152-3.822-19.884-7.703-29.319-11.525c6.569-5.971,10.689-14.63,10.689-24.184
				c0-1.314-0.06-2.627-0.239-3.881c9.495,3.881,19.407,7.822,29.617,11.764c22.333,8.539,46.397,17.197,71.954,25.677
				C1157.161,923.944,1161.4,932.364,1158.833,940.246z"/>
		</g>
		<g>
			<path class="st1" d="M2383.715,645.405c-9.282,5.124-18.507,10.127-27.794,15.073c-77.814,41.761-155.655,78.745-232.073,111.502
				l-0.059,0.002c-27.124,11.647-54.084,22.751-80.76,33.369c-191.466,75.962-370.649,125.858-514.469,158.179
				c-301.938,67.828-518.095,75.19-520.243,75.256c-8.237,0.253-15.127-6.226-15.38-14.462c-0.253-8.236,6.226-15.127,14.462-15.38
				c2.149-0.066,215.977-7.356,515.36-74.748c123.408-27.75,273.06-68.554,434.211-127.872
				c26.286-9.709,52.976-19.909,79.888-30.654l0.06-0.002c99.386-39.617,202.08-86.326,304.754-141.397
				c9.287-4.945,18.51-10.008,27.792-15.133l0.007,0.239C2369.807,630.24,2375.415,639.686,2383.715,645.405z"/>
			<path class="st1" d="M2595.335,515.713c-43.946,29.907-88.364,58.096-132.95,84.678c-9.094,5.417-18.19,10.715-27.347,16.015
				c-0.633-10.854-6.536-20.231-15.127-25.702c9.097-5.298,18.193-10.596,27.285-16.073c44.06-26.207,87.951-54.021,131.369-83.614
				c6.789-4.629,16.102-2.884,20.731,3.903C2603.926,501.768,2602.18,511.022,2595.335,515.713z"/>
		</g>
		<g>
			<path class="st1" d="M1866.381,1204.297c0,7.464,2.15,14.51,5.852,20.421c-10.271,2.091-20.481,3.941-30.573,5.673
				c-84.315,14.63-161.762,20.243-230.97,20.243c-62.699,0-118.709-4.598-166.958-11.346
				c-195.919-27.348-308.716-92.794-313.434-95.601c-7.105-4.18-9.434-13.316-5.255-20.422c4.18-7.105,13.317-9.494,20.422-5.314
				c1.553,0.895,113.873,65.744,303.999,92.017c98.825,13.615,230.732,18.153,387.12-9.077c10.211-1.731,20.481-3.642,30.871-5.672
				C1866.739,1198.146,1866.381,1201.192,1866.381,1204.297z"/>
			<path class="st1" d="M2254.934,1096.575c-98.825,46.935-192.933,80.792-281.13,104.558c-10.091,2.747-20.123,5.315-30.096,7.763
				c0.179-1.493,0.299-3.045,0.299-4.598c0-9.136-3.165-17.555-8.538-24.184c10.091-2.448,20.242-5.075,30.453-7.822
				c86.584-23.348,179.079-56.549,276.233-102.707c7.464-3.523,16.361-0.358,19.885,7.047
				C2265.562,1084.095,2262.398,1092.992,2254.934,1096.575z"/>
		</g>
		<g>
			<path class="st0" d="M1385.384,1136.805c-8.245,0-14.928-6.683-14.928-14.928c0-8.246,6.683-14.928,14.928-14.928
				c441.842,0,697.506-249.879,700.036-252.398c5.831-5.82,15.278-5.826,21.109,0.017c5.82,5.831,5.82,15.272-0.006,21.098
				c-2.683,2.688-67.172,66.518-188.668,131.013C1806.034,1066.042,1622.883,1136.805,1385.384,1136.805z"/>
		</g>
		<g>
			<path class="st1" d="M949.478,472.812c-19.466,0-37.141,8.181-49.622,21.258c-6.866,7.225-12.181,15.884-15.406,25.497
				c-2.389,6.867-3.642,14.271-3.642,21.915c0,37.858,30.811,68.67,68.67,68.67c22.631,0,42.695-10.987,55.175-27.886
				c5.912-8.001,10.151-17.257,12.182-27.289c0.835-4.359,1.314-8.898,1.314-13.495
				C1018.148,503.624,987.337,472.812,949.478,472.812z M988.292,541.482c0,10.629-4.299,20.302-11.286,27.289
				c-7.046,7.106-16.779,11.525-27.528,11.525c-21.378,0-38.813-17.436-38.813-38.813c0-2.389,0.239-4.718,0.657-6.987
				c1.851-10.39,7.882-19.287,16.302-25.079c6.21-4.24,13.734-6.748,21.854-6.748c21.198,0,38.574,17.197,38.813,38.336V541.482z"/>
		</g>
		<g>
			<path class="st1" d="M2462.385,600.391c-2.991-9.825-8.219-18.625-15.19-25.76c-11.843-12.122-28.558-19.494-46.822-18.932
				c-34.558,1.062-61.805,30.038-60.743,64.596c0.149,4.834,0.829,9.473,2.043,13.976c2.576,9.957,7.57,18.885,14.248,26.207
				c11.874,13.137,29.266,21.145,48.305,20.56c34.558-1.062,61.805-30.038,60.742-64.596
				C2464.796,610.831,2463.915,605.481,2462.385,600.391z M2403.309,651.195c-7.281,0.224-14.04-1.958-19.594-5.79
				c-8.301-5.719-13.908-15.165-14.242-26.028l-0.007-0.239c-0.433-17.969,13.8-33.043,31.825-33.597
				c6.864-0.211,13.254,1.683,18.619,5.163c8.591,5.471,14.495,14.848,15.127,25.702c0.069,0.297,0.08,0.655,0.089,0.953
				C2435.682,635.443,2421.394,650.639,2403.309,651.195z"/>
		</g>
		<g>
			<path class="st0" d="M1015.163,825.119c-19.466,0-36.842,8.897-48.367,22.87c-6.329,7.643-10.927,16.899-13.018,26.99v0.06
				c-0.835,4.18-1.314,8.36-1.314,12.779c0,34.574,28.125,62.699,62.699,62.699c21.318,0,40.187-10.689,51.473-26.99
				c5.673-8.121,9.434-17.556,10.748-27.826c0.299-2.568,0.478-5.195,0.478-7.882
				C1077.861,853.244,1049.737,825.119,1015.163,825.119z M1048.005,887.818c0,9.554-4.12,18.212-10.689,24.184
				c-5.852,5.374-13.615,8.659-22.153,8.659c-17.914,0-32.543-14.451-32.842-32.305v-0.537c0-10.808,5.255-20.422,13.316-26.334
				c5.494-4.12,12.182-6.509,19.526-6.509c16.78,0,30.693,12.659,32.603,28.961C1047.945,885.191,1048.005,886.504,1048.005,887.818
				z"/>
		</g>
		<path class="st1" d="M1973.804,1201.132c-0.478-10.39-3.284-20.123-7.882-28.841c-11.524-21.795-34.395-36.664-60.728-36.664
			c-36.724,0-66.818,28.961-68.61,65.266c-0.06,1.135-0.06,2.27-0.06,3.404c0,9.256,1.851,18.033,5.135,26.095
			c10.331,24.96,34.932,42.575,63.535,42.575c37.859,0,68.67-30.812,68.67-68.67
			C1973.864,1203.223,1973.864,1202.148,1973.804,1201.132z M1943.709,1208.955c-2.328,19.227-18.689,34.156-38.515,34.156
			c-13.914,0-26.094-7.344-32.962-18.392c-3.702-5.911-5.852-12.957-5.852-20.421c0-3.105,0.359-6.151,1.074-9.076
			c4.121-17.018,19.467-29.737,37.739-29.737c12.241,0,23.169,5.732,30.275,14.629c5.374,6.629,8.538,15.048,8.538,24.184
			c0,1.553-0.12,3.105-0.299,4.598V1208.955z"/>
		<g>
			<path class="st0" d="M2122.302,616.482c-1.313-10.45-4.955-20.064-10.45-28.483v-0.06
				c-12.181-18.989-33.498-31.528-57.682-31.528c-37.859,0-68.67,30.812-68.67,68.67c0,1.313,0.06,2.568,0.06,3.822v0.059
				c0.657,10.569,3.642,20.482,8.479,29.26c11.704,21.138,34.275,35.529,60.131,35.529c37.859,0,68.67-30.812,68.67-68.67
				C2122.84,622.155,2122.661,619.288,2122.302,616.482z M2054.17,663.894c-12.241,0-23.169-5.733-30.275-14.63v-0.06
				c-5.374-6.628-8.539-14.988-8.539-24.124c0-1.791,0.12-3.523,0.359-5.195c2.567-18.929,18.869-33.618,38.455-33.618
				c10.988,0,20.959,4.598,28.005,12.062c6.688,6.927,10.808,16.362,10.808,26.752c0,0.537,0,1.135-0.06,1.672
				C2092.029,647.353,2075.01,663.894,2054.17,663.894z"/>
		</g>
	</g>
</g>
<g>
</g>
<g>
</g>
<g>
</g>
<g>
</g>
<g>
</g>
<g>
</g>
<g>
</g>
<g>
</g>
<g>
</g>
<g>
</g>
<g>
</g>
<g>
</g>
<g>
</g>
<g>
</g>
<g>
</g>
</svg>
