<?xml version="1.0" encoding="UTF-8" standalone="no"?>
<!-- Generator: Adobe Illustrator 23.0.5, SVG Export Plug-In . SVG Version: 6.00 Build 0)  -->

<svg
   version="1.1"
   id="Layer_1"
   x="0px"
   y="0px"
   viewBox="0 0 2945.362 747.574"
   style="enable-background:new 0 0 2945.362 747.574;"
   xml:space="preserve"
   sodipodi:docname="logo-name-HORIZONTAL.svg"
   inkscape:version="1.4.2 (f4327f4, 2025-05-13)"
   xmlns:inkscape="http://www.inkscape.org/namespaces/inkscape"
   xmlns:sodipodi="http://sodipodi.sourceforge.net/DTD/sodipodi-0.dtd"
   xmlns="http://www.w3.org/2000/svg"
   xmlns:svg="http://www.w3.org/2000/svg"><defs
   id="defs45" /><sodipodi:namedview
   id="namedview45"
   pagecolor="#ffffff"
   bordercolor="#000000"
   borderopacity="0.25"
   inkscape:showpageshadow="2"
   inkscape:pageopacity="0.0"
   inkscape:pagecheckerboard="0"
   inkscape:deskcolor="#d1d1d1"
   inkscape:zoom="0.6029819"
   inkscape:cx="1473.5102"
   inkscape:cy="373.97474"
   inkscape:window-width="2048"
   inkscape:window-height="1081"
   inkscape:window-x="4472"
   inkscape:window-y="0"
   inkscape:window-maximized="1"
   inkscape:current-layer="g25" />
<style
   type="text/css"
   id="style1">
	.Drop_x0020_Shadow{fill:none;}
	.Outer_x0020_Glow_x0020_5_x0020_pt{fill:none;}
	.Blue_x0020_Neon{fill:none;stroke:#8AACDA;stroke-width:7;stroke-linecap:round;stroke-linejoin:round;}
	.Chrome_x0020_Highlight{fill:url(#SVGID_1_);stroke:#FFFFFF;stroke-width:0.3629;stroke-miterlimit:1;}
	.Jive_GS{fill:#FFDD00;}
	.Alyssa_GS{fill:#A6D0E4;}
	.st0{fill:#0096FF;}
	.st1{fill:#59392B;}
</style>
<linearGradient
   id="SVGID_1_"
   gradientUnits="userSpaceOnUse"
   x1="-224.4255"
   y1="-607.4681"
   x2="-224.4255"
   y2="-608.4681">
	<stop
   offset="0"
   style="stop-color:#656565"
   id="stop1" />
	<stop
   offset="0.618"
   style="stop-color:#1B1B1B"
   id="stop2" />
	<stop
   offset="0.6292"
   style="stop-color:#545454"
   id="stop3" />
	<stop
   offset="0.9831"
   style="stop-color:#3E3E3E"
   id="stop4" />
</linearGradient>
<g
   id="g30">
	<g
   id="g11">
		<path
   class="st0"
   d="M996.462,303.817h155.49v31.097h-62.196v108.845h-31.099V334.913h-62.195V303.817z"
   id="path4" />
		<path
   class="st0"
   d="M1380.31,443.758h-108.843c-31.099,0-46.647-15.55-46.647-46.647v-93.294h155.49v31.097h-124.391v23.326    h124.391v31.097h-124.391v7.775c0,10.367,5.182,15.546,15.548,15.546h108.843V443.758z"
   id="path5" />
		<path
   class="st0"
   d="M1608.669,443.758h-108.843c-31.099,0-46.647-15.55-46.647-46.647v-46.647    c0-31.101,15.548-46.647,46.647-46.647h108.843v31.097h-108.843c-10.367,0-15.548,5.183-15.548,15.55v46.647    c0,10.367,5.182,15.546,15.548,15.546h108.843V443.758z"
   id="path6" />
		<path
   class="st0"
   d="M1681.538,443.758V303.817h31.099v54.422h93.294v-54.422h31.097v139.941h-31.097v-54.422h-93.294v54.422    H1681.538z"
   id="path7" />
		<path
   class="st1"
   d="M1909.897,443.758V303.817h108.845c31.097,0,46.643,15.546,46.643,46.647v93.294h-31.093v-93.294    c0-10.367-5.187-15.55-15.55-15.55h-77.744v108.845H1909.897z"
   id="path8"
   style="fill:#7e8090;fill-opacity:1" />
		<path
   class="st1"
   d="M2293.746,443.758h-108.845c-31.097,0-46.643-15.55-46.643-46.647v-93.294h155.488v31.097h-124.391v23.326    h124.391v31.097h-124.391v7.775c0,10.367,5.18,15.546,15.546,15.546h108.845V443.758z"
   id="path9"
   style="fill:#7e8090;fill-opacity:1" />
		<path
   class="st1"
   d="M2366.615,412.657h124.391v-23.322h-77.744c-31.101,0-46.647-14.045-46.647-42.14    c0-28.919,15.546-43.379,46.647-43.379h108.844v31.097h-124.395v23.326h77.744c31.101,0,46.651,14.256,46.651,42.761    c0,28.505-15.55,42.758-46.651,42.758h-108.841V412.657z"
   id="path10"
   style="fill:#7e8090;fill-opacity:1" />
		<path
   class="st1"
   d="M2594.976,303.817h155.492v31.097h-62.198v108.845h-31.097V334.913h-62.198V303.817z"
   id="path11"
   style="fill:#7e8090;fill-opacity:1" />
	</g>
	<g
   id="g29">
		<g
   id="g13">
			<path
   class="st0"
   d="M680.299,309.179c0,3.368,1.167,6.45,3.148,8.894v0.022c-3.654,1.123-7.331,2.223-11.007,3.302     c-5.525,1.629-11.073,3.192-16.642,4.711c-34.76,9.444-70.048,16.62-105.6,21.552c-0.022,0-0.022,0-0.044,0     c-12.724,1.761-25.47,3.214-38.238,4.381h-0.022c-24.876,2.29-49.861,3.478-74.825,3.522h-1.805     c-124.51,0-207.238-28.354-208.053-28.64c-2.884-1.013-4.381-4.139-3.39-7c1.013-2.884,4.139-4.403,7.001-3.39     c0.814,0.286,81.936,28.024,204.443,28.024h2.245c11.469-0.022,23.577-0.308,36.213-0.925h0.022     c12.284-0.594,25.096-1.475,38.37-2.752c47.198-4.469,100.339-13.605,157.201-30.269v-0.022     c3.698-1.057,7.397-2.179,11.117-3.324C680.343,307.88,680.299,308.519,680.299,309.179z"
   id="path12" />
			<path
   class="st0"
   d="M912.259,209.654c-61.375,40.263-125.897,72.558-192.533,96.355c-3.588,1.299-7.22,2.576-10.831,3.786     c0.022-0.198,0.022-0.418,0.022-0.616c0-3.83-1.519-7.309-3.985-9.862c3.633-1.233,7.287-2.509,10.941-3.808v-0.022     c60.935-21.662,125.193-52.283,190.354-95.034c2.532-1.673,5.944-0.969,7.617,1.585     C915.517,204.569,914.813,207.981,912.259,209.654z"
   id="path13" />
		</g>
		<g
   id="g15">
			<path
   class="st1"
   d="M269.058,260.881c3.302,1.849,6.714,3.742,10.237,5.658c-3.104,2.135-5.328,5.415-6.01,9.246     c-3.412-1.849-6.714-3.698-9.906-5.503c-42.927-24.215-66.107-43.059-66.482-43.367c-2.333-1.937-2.686-5.393-0.748-7.749     c1.937-2.356,5.393-2.686,7.749-0.749C204.271,218.724,226.945,237.15,269.058,260.881z"
   id="path14"
   style="fill:#7e8090;fill-opacity:1" />
			<path
   class="st1"
   d="M857.312,364.566c-58.227,9.774-113.195,13.869-164.421,13.869c-0.968,0-1.937,0-2.906-0.022     c-10.743-0.022-21.31-0.22-31.722-0.616c-53.45-1.937-102.409-8.233-146.37-16.951c-13.186-2.598-25.91-5.415-38.172-8.409     c-37.93-9.224-71.391-20.033-99.987-30.797c-24.347-9.18-46.427-18.8-66.042-28.244c-3.478-1.673-6.868-3.346-10.192-4.975     c2.576-2.576,4.161-6.142,4.161-10.06v-0.176c3.412,1.717,6.934,3.434,10.523,5.151c19.548,9.422,41.562,19.02,65.909,28.178     c36.807,13.869,81.782,27.715,134.02,38.172c12.284,2.466,24.986,4.733,38.084,6.78c42.068,6.56,88.143,10.699,137.851,10.941     c10.523,0.066,21.221-0.066,32.096-0.374c42.729-1.211,87.946-5.371,135.364-13.318c3.016-0.506,5.833,1.519,6.34,4.513     C862.331,361.242,860.306,364.082,857.312,364.566z"
   id="path15"
   style="fill:#7e8090;fill-opacity:1" />
		</g>
		<g
   id="g16">
			<path
   class="st1"
   d="M562.604,461.455c-21.985,0-43.907-1.079-65.786-3.24c-3.025-0.299-5.234-2.995-4.935-6.019     c0.298-3.025,2.962-5.22,6.018-4.936c110.742,10.947,223.264-6.344,334.428-51.391c2.81-1.137,6.024,0.217,7.167,3.036     c1.142,2.816-0.217,6.026-3.035,7.167C745.566,442.907,653.714,461.455,562.604,461.455z"
   id="path16"
   style="fill:#7e8090;fill-opacity:1" />
		</g>
		<g
   id="g18">
			<path
   class="st0"
   d="M293.735,391.357c3.324,1.607,6.868,3.28,10.633,4.975c-2.972,2.179-4.909,5.724-4.909,9.708v0.198     c-3.72-1.673-7.221-3.324-10.523-4.909v-0.022c-23.026-11.073-35.64-19.372-36.543-19.967c-2.532-1.673-3.236-5.085-1.541-7.617     c1.673-2.532,5.085-3.236,7.617-1.563C258.689,372.315,271.061,380.438,293.735,391.357z"
   id="path17" />
			<path
   class="st0"
   d="M364.532,425.368c-0.771,2.311-2.928,3.764-5.24,3.764c-0.572,0-1.145-0.088-1.717-0.286     c-9.62-3.17-18.646-6.406-27.033-9.642c-3.743-1.409-7.331-2.84-10.809-4.249c2.422-2.201,3.941-5.393,3.941-8.916     c0-0.484-0.022-0.969-0.088-1.431c3.5,1.431,7.155,2.884,10.919,4.337c8.233,3.148,17.105,6.34,26.527,9.466     C363.915,419.358,365.478,422.462,364.532,425.368z"
   id="path18" />
		</g>
		<g
   id="g20">
			<path
   class="st1"
   d="M816.098,316.672c-3.422,1.889-6.823,3.734-10.247,5.557c-28.687,15.396-57.384,29.03-85.556,41.106     l-0.022,0.001c-9.999,4.294-19.939,8.388-29.773,12.302c-70.586,28.004-136.644,46.399-189.664,58.314     c-111.313,25.006-191.001,27.72-191.793,27.744c-3.036,0.093-5.577-2.295-5.67-5.332c-0.093-3.036,2.295-5.577,5.332-5.67     c0.792-0.024,79.622-2.712,189.993-27.557c45.496-10.23,100.667-25.273,160.077-47.141c9.691-3.579,19.53-7.34,29.451-11.301     l0.022-0.001c36.64-14.605,74.499-31.825,112.351-52.128c3.424-1.823,6.824-3.69,10.246-5.579l0.003,0.088     C810.971,311.081,813.038,314.563,816.098,316.672z"
   id="path19"
   style="fill:#7e8090;fill-opacity:1" />
			<path
   class="st1"
   d="M894.114,268.859c-16.201,11.026-32.576,21.418-49.014,31.217c-3.352,1.997-6.706,3.95-10.082,5.904     c-0.233-4.001-2.41-7.458-5.577-9.475c3.354-1.953,6.707-3.906,10.059-5.925c16.243-9.661,32.424-19.916,48.431-30.825     c2.503-1.707,5.936-1.063,7.643,1.439C897.281,263.718,896.638,267.13,894.114,268.859z"
   id="path20"
   style="fill:#7e8090;fill-opacity:1" />
		</g>
		<g
   id="g22">
			<path
   class="st1"
   d="M625.377,522.714c0,2.752,0.792,5.349,2.157,7.529c-3.786,0.771-7.551,1.453-11.271,2.091     c-31.084,5.394-59.635,7.463-85.15,7.463c-23.115,0-43.763-1.695-61.551-4.183c-72.228-10.082-113.812-34.209-115.551-35.244     c-2.62-1.541-3.478-4.909-1.937-7.529c1.541-2.62,4.909-3.5,7.529-1.959c0.572,0.33,41.981,24.237,112.072,33.923     c36.433,5.019,85.062,6.692,142.716-3.346c3.764-0.638,7.551-1.343,11.381-2.091     C625.509,520.446,625.377,521.569,625.377,522.714z"
   id="path21"
   style="fill:#7e8090;fill-opacity:1" />
			<path
   class="st1"
   d="M768.622,483c-36.433,17.303-71.127,29.785-103.641,38.546c-3.72,1.013-7.419,1.959-11.095,2.862     c0.066-0.55,0.11-1.123,0.11-1.695c0-3.368-1.167-6.472-3.148-8.916c3.72-0.902,7.462-1.871,11.227-2.884     c31.92-8.608,66.02-20.847,101.836-37.864c2.752-1.299,6.032-0.132,7.331,2.598C772.54,478.4,771.373,481.68,768.622,483z"
   id="path22"
   style="fill:#7e8090;fill-opacity:1" />
		</g>
		<g
   id="g23">
			<path
   class="st0"
   d="M448.052,497.832c-3.04,0-5.503-2.464-5.503-5.503c0-3.04,2.464-5.503,5.503-5.503     c162.89,0,257.143-92.121,258.076-93.049c2.15-2.145,5.632-2.148,7.782,0.006c2.146,2.15,2.146,5.63-0.002,7.778     c-0.989,0.991-24.763,24.523-69.554,48.299C603.13,471.744,535.609,497.832,448.052,497.832z"
   id="path23" />
		</g>
		<g
   id="g24">
			<path
   class="st1"
   d="M287.351,253.044c-7.177,0-13.693,3.016-18.294,7.837c-2.531,2.664-4.491,5.856-5.679,9.4     c-0.881,2.532-1.343,5.261-1.343,8.079c0,13.957,11.359,25.316,25.316,25.316c8.343,0,15.74-4.051,20.341-10.281     c2.179-2.95,3.742-6.362,4.491-10.06c0.308-1.607,0.484-3.28,0.484-4.975C312.667,264.403,301.308,253.044,287.351,253.044z      M301.66,278.36c0,3.918-1.585,7.485-4.161,10.06c-2.598,2.62-6.186,4.249-10.148,4.249c-7.881,0-14.309-6.428-14.309-14.309     c0-0.881,0.088-1.739,0.242-2.576c0.682-3.83,2.906-7.11,6.01-9.246c2.289-1.563,5.063-2.488,8.057-2.488     c7.815,0,14.221,6.34,14.309,14.133V278.36z"
   id="path24"
   style="fill:#7e8090;fill-opacity:1" />
		</g>
		<g
   id="g25">
			<path
   class="st1"
   d="M845.1,300.077c-1.103-3.622-3.03-6.866-5.6-9.497c-4.366-4.469-10.528-7.187-17.261-6.98     c-12.74,0.392-22.785,11.074-22.393,23.814c0.055,1.782,0.306,3.492,0.753,5.153c0.95,3.671,2.791,6.962,5.252,9.661     c4.377,4.843,10.789,7.795,17.808,7.58c12.74-0.392,22.785-11.074,22.393-23.814C845.99,303.926,845.665,301.954,845.1,300.077z      M823.322,318.806c-2.684,0.083-5.176-0.722-7.224-2.135c-3.06-2.108-5.127-5.591-5.25-9.595l-0.003-0.088     c-0.16-6.624,5.088-12.182,11.733-12.386c2.53-0.078,4.886,0.621,6.864,1.903c3.167,2.017,5.344,5.474,5.577,9.475     c0.025,0.109,0.029,0.241,0.033,0.351C835.256,312.999,829.989,318.601,823.322,318.806z"
   id="path25"
   style="fill:#7e8090;fill-opacity:1" />
		</g>
		<g
   id="g26">
			<path
   class="st0"
   d="M311.566,382.925c-7.177,0-13.582,3.28-17.831,8.431c-2.333,2.818-4.028,6.23-4.799,9.95v0.022     c-0.308,1.541-0.484,3.082-0.484,4.711c0,12.746,10.368,23.115,23.115,23.115c7.859,0,14.815-3.941,18.976-9.95     c2.091-2.994,3.478-6.472,3.962-10.258c0.11-0.947,0.176-1.915,0.176-2.906C334.681,393.294,324.313,382.925,311.566,382.925z      M323.674,406.04c0,3.522-1.519,6.714-3.941,8.916c-2.157,1.981-5.019,3.192-8.167,3.192c-6.604,0-11.997-5.327-12.108-11.91     v-0.198c0-3.985,1.937-7.529,4.909-9.708c2.025-1.519,4.491-2.399,7.199-2.399c6.186,0,11.315,4.667,12.02,10.677     C323.652,405.071,323.674,405.556,323.674,406.04z"
   id="path26" />
		</g>
		<path
   class="st1"
   d="M664.98,521.547c-0.176-3.83-1.211-7.419-2.906-10.633c-4.249-8.035-12.68-13.517-22.388-13.517    c-13.539,0-24.633,10.677-25.294,24.061c-0.022,0.418-0.022,0.837-0.022,1.255c0,3.412,0.683,6.648,1.893,9.62    c3.809,9.202,12.878,15.696,23.423,15.696c13.957,0,25.316-11.359,25.316-25.316C665.002,522.317,665.002,521.921,664.98,521.547z     M653.885,524.431c-0.858,7.088-6.89,12.592-14.199,12.592c-5.129,0-9.62-2.708-12.152-6.78c-1.365-2.179-2.157-4.777-2.157-7.529    c0-1.145,0.132-2.267,0.396-3.346c1.519-6.274,7.177-10.963,13.913-10.963c4.513,0,8.541,2.113,11.161,5.393    c1.981,2.444,3.148,5.548,3.148,8.916c0,0.572-0.044,1.145-0.11,1.695V524.431z"
   id="path27"
   style="fill:#7e8090;fill-opacity:1" />
		<g
   id="g28">
			<path
   class="st0"
   d="M719.725,306.009c-0.484-3.852-1.827-7.397-3.852-10.501v-0.022c-4.491-7-12.349-11.623-21.265-11.623     c-13.957,0-25.316,11.359-25.316,25.316c0,0.484,0.022,0.947,0.022,1.409v0.022c0.242,3.897,1.343,7.551,3.126,10.787     c4.315,7.793,12.636,13.098,22.168,13.098c13.957,0,25.316-11.359,25.316-25.316C719.924,308.1,719.858,307.044,719.725,306.009z      M694.608,323.488c-4.513,0-8.541-2.113-11.161-5.393v-0.022c-1.981-2.444-3.148-5.526-3.148-8.894     c0-0.66,0.044-1.299,0.132-1.915c0.946-6.978,6.956-12.394,14.177-12.394c4.051,0,7.727,1.695,10.324,4.447     c2.466,2.554,3.985,6.032,3.985,9.862c0,0.198,0,0.418-0.022,0.616C708.565,317.39,702.291,323.488,694.608,323.488z"
   id="path28" />
		</g>
	</g>
</g>
<g
   id="g31">
</g>
<g
   id="g32">
</g>
<g
   id="g33">
</g>
<g
   id="g34">
</g>
<g
   id="g35">
</g>
<g
   id="g36">
</g>
<g
   id="g37">
</g>
<g
   id="g38">
</g>
<g
   id="g39">
</g>
<g
   id="g40">
</g>
<g
   id="g41">
</g>
<g
   id="g42">
</g>
<g
   id="g43">
</g>
<g
   id="g44">
</g>
<g
   id="g45">
</g>
</svg>
